Normalized EMG Linear Envelopes
nRows=65
nColumns=17

endheader
time	        VM	        VL	        RF	       GRA	        TA	   ADDLONG	   SEMIMEM	      BFLH	        GM	        GL	       TFL	   GLUTMAX	   GLUTMED	      PIRI	    OBTINT	        QF	
3.23	  0.397238	  0.496123	  0.126309	  0.394070	  0.131992	  0.335525	  0.506109	  0.380533	  0.488464	  0.286030	  0.245393	  0.137893	  0.152926	  0.000000	  0.000000	  0.000000	
3.2305	  0.399780	  0.500870	  0.129127	  0.390867	  0.132746	  0.337670	  0.501551	  0.377268	  0.484428	  0.285606	  0.249313	  0.137656	  0.153185	  0.000000	  0.000000	  0.000000	
3.231	  0.402324	  0.505603	  0.131970	  0.387676	  0.133499	  0.339789	  0.496948	  0.373991	  0.480331	  0.285151	  0.253240	  0.137435	  0.153450	  0.000000	  0.000000	  0.000000	
3.2315	  0.404867	  0.510319	  0.134838	  0.384498	  0.134251	  0.341881	  0.492300	  0.370703	  0.476175	  0.284663	  0.257174	  0.137230	  0.153722	  0.000000	  0.000000	  0.000000	
3.232	  0.407410	  0.515018	  0.137731	  0.381335	  0.135001	  0.343945	  0.487609	  0.367402	  0.471963	  0.284143	  0.261113	  0.137040	  0.153998	  0.000000	  0.000000	  0.000000	
3.2325	  0.409952	  0.519698	  0.140647	  0.378189	  0.135751	  0.345981	  0.482878	  0.364089	  0.467697	  0.283591	  0.265055	  0.136865	  0.154279	  0.000000	  0.000000	  0.000000	
3.233	  0.412492	  0.524356	  0.143587	  0.375059	  0.136500	  0.347987	  0.478108	  0.360764	  0.463378	  0.283007	  0.268999	  0.136704	  0.154564	  0.000000	  0.000000	  0.000000	
3.2335	  0.415028	  0.528990	  0.146550	  0.371948	  0.137249	  0.349964	  0.473300	  0.357425	  0.459008	  0.282392	  0.272943	  0.136557	  0.154851	  0.000000	  0.000000	  0.000000	
3.234	  0.417560	  0.533599	  0.149534	  0.368855	  0.137998	  0.351909	  0.468457	  0.354074	  0.454591	  0.281744	  0.276886	  0.136422	  0.155141	  0.000000	  0.000000	  0.000000	
3.2345	  0.420087	  0.538181	  0.152539	  0.365783	  0.138747	  0.353822	  0.463581	  0.350708	  0.450129	  0.281064	  0.280827	  0.136299	  0.155431	  0.000000	  0.000000	  0.000000	
3.235	  0.422607	  0.542733	  0.155564	  0.362731	  0.139496	  0.355703	  0.458673	  0.347329	  0.445624	  0.280353	  0.284763	  0.136187	  0.155722	  0.000000	  0.000000	  0.000000	
3.2355	  0.425121	  0.547252	  0.158609	  0.359700	  0.140247	  0.357551	  0.453734	  0.343937	  0.441079	  0.279609	  0.288693	  0.136085	  0.156012	  0.000000	  0.000000	  0.000000	
3.236	  0.427625	  0.551736	  0.161672	  0.356690	  0.140999	  0.359365	  0.448767	  0.340531	  0.436497	  0.278834	  0.292615	  0.135994	  0.156301	  0.000000	  0.000000	  0.000000	
3.2365	  0.430119	  0.556183	  0.164753	  0.353704	  0.141754	  0.361145	  0.443773	  0.337111	  0.431880	  0.278028	  0.296528	  0.135912	  0.156589	  0.000000	  0.000000	  0.000000	
3.237	  0.432602	  0.560590	  0.167850	  0.350741	  0.142510	  0.362890	  0.438756	  0.333678	  0.427232	  0.277190	  0.300429	  0.135838	  0.156874	  0.000000	  0.000000	  0.000000	
3.2375	  0.435072	  0.564953	  0.170962	  0.347803	  0.143270	  0.364600	  0.433716	  0.330231	  0.422556	  0.276322	  0.304318	  0.135772	  0.157156	  0.000000	  0.000000	  0.000000	
3.238	  0.437527	  0.569270	  0.174090	  0.344891	  0.144034	  0.366274	  0.428657	  0.326771	  0.417855	  0.275424	  0.308192	  0.135713	  0.157435	  0.000000	  0.000000	  0.000000	
3.2385	  0.439966	  0.573538	  0.177230	  0.342006	  0.144801	  0.367914	  0.423581	  0.323297	  0.413132	  0.274497	  0.312050	  0.135661	  0.157710	  0.000000	  0.000000	  0.000000	
3.239	  0.442386	  0.577753	  0.180383	  0.339149	  0.145574	  0.369518	  0.418492	  0.319811	  0.408390	  0.273540	  0.315889	  0.135614	  0.157981	  0.000000	  0.000000	  0.000000	
3.2395	  0.444786	  0.581912	  0.183548	  0.336322	  0.146352	  0.371087	  0.413390	  0.316313	  0.403631	  0.272554	  0.319707	  0.135572	  0.158249	  0.000000	  0.000000	  0.000000	
3.24	  0.447165	  0.586012	  0.186722	  0.333525	  0.147136	  0.372620	  0.408281	  0.312804	  0.398859	  0.271539	  0.323503	  0.135534	  0.158512	  0.000000	  0.000000	  0.000000	
3.2405	  0.449520	  0.590050	  0.189905	  0.330761	  0.147927	  0.374118	  0.403166	  0.309284	  0.394076	  0.270495	  0.327273	  0.135500	  0.158770	  0.000000	  0.000000	  0.000000	
3.241	  0.451851	  0.594022	  0.193095	  0.328030	  0.148726	  0.375580	  0.398048	  0.305755	  0.389285	  0.269423	  0.331017	  0.135468	  0.159024	  0.000000	  0.000000	  0.000000	
3.2415	  0.454156	  0.597926	  0.196292	  0.325333	  0.149532	  0.377009	  0.392931	  0.302218	  0.384489	  0.268322	  0.334731	  0.135438	  0.159273	  0.000000	  0.000000	  0.000000	
3.242	  0.456432	  0.601758	  0.199495	  0.322672	  0.150346	  0.378403	  0.387816	  0.298675	  0.379689	  0.267192	  0.338413	  0.135409	  0.159517	  0.000000	  0.000000	  0.000000	
3.2425	  0.458680	  0.605516	  0.202700	  0.320049	  0.151169	  0.379763	  0.382707	  0.295128	  0.374889	  0.266034	  0.342060	  0.135381	  0.159756	  0.000000	  0.000000	  0.000000	
3.243	  0.460897	  0.609197	  0.205908	  0.317463	  0.152002	  0.381091	  0.377607	  0.291579	  0.370090	  0.264848	  0.345672	  0.135352	  0.159989	  0.000000	  0.000000	  0.000000	
3.2435	  0.463083	  0.612798	  0.209117	  0.314918	  0.152844	  0.382387	  0.372518	  0.288029	  0.365296	  0.263634	  0.349244	  0.135321	  0.160217	  0.000000	  0.000000	  0.000000	
3.244	  0.465236	  0.616316	  0.212326	  0.312414	  0.153697	  0.383652	  0.367442	  0.284480	  0.360509	  0.262393	  0.352775	  0.135289	  0.160438	  0.000000	  0.000000	  0.000000	
3.2445	  0.467355	  0.619749	  0.215533	  0.309953	  0.154560	  0.384887	  0.362383	  0.280933	  0.355730	  0.261126	  0.356263	  0.135254	  0.160653	  0.000000	  0.000000	  0.000000	
3.245	  0.469439	  0.623096	  0.218737	  0.307536	  0.155435	  0.386093	  0.357343	  0.277391	  0.350963	  0.259833	  0.359705	  0.135216	  0.160860	  0.000000	  0.000000	  0.000000	
3.2455	  0.471487	  0.626353	  0.221936	  0.305166	  0.156321	  0.387271	  0.352324	  0.273855	  0.346209	  0.258516	  0.363100	  0.135173	  0.161061	  0.000000	  0.000000	  0.000000	
3.246	  0.473497	  0.629520	  0.225129	  0.302842	  0.157219	  0.388422	  0.347328	  0.270327	  0.341470	  0.257177	  0.366443	  0.135125	  0.161253	  0.000000	  0.000000	  0.000000	
3.2465	  0.475469	  0.632594	  0.228316	  0.300568	  0.158129	  0.389547	  0.342359	  0.266808	  0.336749	  0.255815	  0.369734	  0.135071	  0.161437	  0.000000	  0.000000	  0.000000	
3.247	  0.477402	  0.635573	  0.231494	  0.298343	  0.159052	  0.390648	  0.337417	  0.263299	  0.332048	  0.254432	  0.372970	  0.135011	  0.161612	  0.000000	  0.000000	  0.000000	
3.2475	  0.479293	  0.638454	  0.234663	  0.296170	  0.159988	  0.391725	  0.332506	  0.259803	  0.327368	  0.253030	  0.376148	  0.134943	  0.161778	  0.000000	  0.000000	  0.000000	
3.248	  0.481143	  0.641235	  0.237821	  0.294050	  0.160937	  0.392782	  0.327627	  0.256320	  0.322712	  0.251610	  0.379266	  0.134866	  0.161934	  0.000000	  0.000000	  0.000000	
3.2485	  0.482949	  0.643915	  0.240967	  0.291984	  0.161899	  0.393818	  0.322781	  0.252852	  0.318082	  0.250174	  0.382322	  0.134781	  0.162080	  0.000000	  0.000000	  0.000000	
3.249	  0.484711	  0.646491	  0.244100	  0.289974	  0.162875	  0.394836	  0.317972	  0.249399	  0.313478	  0.248723	  0.385315	  0.134686	  0.162215	  0.000000	  0.000000	  0.000000	
3.2495	  0.486428	  0.648962	  0.247219	  0.288020	  0.163865	  0.395837	  0.313201	  0.245965	  0.308905	  0.247260	  0.388241	  0.134580	  0.162338	  0.000000	  0.000000	  0.000000	
3.25	  0.488098	  0.651326	  0.250321	  0.286124	  0.164868	  0.396823	  0.308469	  0.242548	  0.304362	  0.245785	  0.391101	  0.134463	  0.162450	  0.000000	  0.000000	  0.000000	
3.2505	  0.489722	  0.653581	  0.253405	  0.284288	  0.165886	  0.397793	  0.303778	  0.239151	  0.299853	  0.244300	  0.393890	  0.134334	  0.162551	  0.000000	  0.000000	  0.000000	
3.251	  0.491297	  0.655726	  0.256471	  0.282513	  0.166918	  0.398750	  0.299129	  0.235774	  0.295378	  0.242808	  0.396609	  0.134192	  0.162638	  0.000000	  0.000000	  0.000000	
3.2515	  0.492823	  0.657758	  0.259516	  0.280801	  0.167964	  0.399695	  0.294524	  0.232420	  0.290941	  0.241309	  0.399256	  0.134036	  0.162712	  0.000000	  0.000000	  0.000000	
3.252	  0.494300	  0.659677	  0.262539	  0.279152	  0.169024	  0.400627	  0.289965	  0.229087	  0.286542	  0.239805	  0.401828	  0.133867	  0.162773	  0.000000	  0.000000	  0.000000	
3.2525	  0.495725	  0.661480	  0.265539	  0.277569	  0.170098	  0.401549	  0.285453	  0.225779	  0.282183	  0.238297	  0.404324	  0.133682	  0.162819	  0.000000	  0.000000	  0.000000	
3.253	  0.497098	  0.663167	  0.268514	  0.276053	  0.171186	  0.402461	  0.280989	  0.222495	  0.277867	  0.236787	  0.406742	  0.133483	  0.162851	  0.000000	  0.000000	  0.000000	
3.2535	  0.498418	  0.664735	  0.271464	  0.274604	  0.172288	  0.403364	  0.276574	  0.219237	  0.273594	  0.235277	  0.409080	  0.133267	  0.162868	  0.000000	  0.000000	  0.000000	
3.254	  0.499682	  0.666184	  0.274387	  0.273225	  0.173404	  0.404258	  0.272209	  0.216006	  0.269366	  0.233767	  0.411338	  0.133035	  0.162869	  0.000000	  0.000000	  0.000000	
3.2545	  0.500890	  0.667512	  0.277283	  0.271916	  0.174534	  0.405145	  0.267896	  0.212803	  0.265184	  0.232260	  0.413514	  0.132785	  0.162855	  0.000000	  0.000000	  0.000000	
3.255	  0.502039	  0.668717	  0.280150	  0.270679	  0.175676	  0.406024	  0.263636	  0.209629	  0.261051	  0.230756	  0.415607	  0.132518	  0.162824	  0.000000	  0.000000	  0.000000	
3.2555	  0.503128	  0.669798	  0.282987	  0.269515	  0.176832	  0.406896	  0.259429	  0.206485	  0.256967	  0.229256	  0.417618	  0.132233	  0.162776	  0.000000	  0.000000	  0.000000	
3.256	  0.504156	  0.670755	  0.285793	  0.268425	  0.178001	  0.407761	  0.255276	  0.203371	  0.252933	  0.227763	  0.419545	  0.131930	  0.162710	  0.000000	  0.000000	  0.000000	
3.2565	  0.505121	  0.671585	  0.288568	  0.267410	  0.179183	  0.408620	  0.251180	  0.200289	  0.248951	  0.226276	  0.421389	  0.131608	  0.162627	  0.000000	  0.000000	  0.000000	
3.257	  0.506022	  0.672289	  0.291310	  0.266471	  0.180377	  0.409472	  0.247139	  0.197239	  0.245022	  0.224798	  0.423151	  0.131267	  0.162526	  0.000000	  0.000000	  0.000000	
3.2575	  0.506856	  0.672866	  0.294018	  0.265611	  0.181584	  0.410317	  0.243155	  0.194223	  0.241147	  0.223330	  0.424831	  0.130906	  0.162408	  0.000000	  0.000000	  0.000000	
3.258	  0.507622	  0.673315	  0.296692	  0.264829	  0.182803	  0.411156	  0.239229	  0.191240	  0.237328	  0.221873	  0.426429	  0.130526	  0.162270	  0.000000	  0.000000	  0.000000	
3.2585	  0.508318	  0.673637	  0.299330	  0.264126	  0.184033	  0.411989	  0.235361	  0.188292	  0.233565	  0.220427	  0.427947	  0.130127	  0.162115	  0.000000	  0.000000	  0.000000	
3.259	  0.508942	  0.673830	  0.301932	  0.263505	  0.185276	  0.412814	  0.231551	  0.185380	  0.229859	  0.218994	  0.429384	  0.129708	  0.161940	  0.000000	  0.000000	  0.000000	
3.2595	  0.509493	  0.673894	  0.304498	  0.262965	  0.186530	  0.413632	  0.227801	  0.182504	  0.226212	  0.217575	  0.430744	  0.129269	  0.161746	  0.000000	  0.000000	  0.000000	
3.26	  0.509969	  0.673829	  0.307027	  0.262508	  0.187796	  0.414442	  0.224110	  0.179664	  0.222625	  0.216172	  0.432027	  0.128810	  0.161534	  0.000000	  0.000000	  0.000000	
3.2605	  0.510370	  0.673635	  0.309520	  0.262134	  0.189073	  0.415244	  0.220479	  0.176862	  0.219098	  0.214785	  0.433236	  0.128332	  0.161301	  0.000000	  0.000000	  0.000000	
3.261	  0.510696	  0.673314	  0.311974	  0.261844	  0.190361	  0.416036	  0.216907	  0.174097	  0.215632	  0.213415	  0.434374	  0.127834	  0.161050	  0.000000	  0.000000	  0.000000	
3.2615	  0.510946	  0.672865	  0.314391	  0.261639	  0.191660	  0.416819	  0.213396	  0.171371	  0.212229	  0.212063	  0.435444	  0.127317	  0.160779	  0.000000	  0.000000	  0.000000	
3.262	  0.511119	  0.672292	  0.316770	  0.261520	  0.192970	  0.417591	  0.209946	  0.168684	  0.208888	  0.210730	  0.436447	  0.126781	  0.160490	  0.000000	  0.000000	  0.000000	
